M48
; DRILL file {KiCad (5.1.9)-1} date 04/11/21 22:57:36
; FORMAT={-:-/ absolute / inch / decimal}
; #@! TF.CreationDate,2021-04-11T22:57:36-03:00
; #@! TF.GenerationSoftware,Kicad,Pcbnew,(5.1.9)-1
FMAT,2
INCH
T1C0.0394
T2C0.0400
T3C0.0433
T4C0.1575
%
G90
G05
T1
X2.5Y-2.34
X2.5Y-2.44
X2.5Y-2.54
X2.5Y-2.64
X2.5Y-2.74
X2.5Y-2.84
X2.5Y-2.94
X2.5Y-3.04
X2.5Y-3.14
X2.5Y-3.24
X2.5Y-3.34
X2.5Y-3.44
X2.64Y-2.84
X2.66Y-3.04
X2.6763Y-5.53
X2.72Y-3.62
X2.745Y-2.23
X2.7877Y-5.63
X2.85Y-3.86
X2.85Y-3.96
X2.85Y-4.06
X2.85Y-4.16
X2.85Y-4.26
X2.85Y-4.36
X2.85Y-4.46
X2.85Y-4.56
X2.85Y-4.66
X2.85Y-4.76
X2.85Y-4.86
X2.85Y-4.96
X2.85Y-5.06
X2.85Y-5.16
X2.85Y-5.26
X2.85Y-5.36
X2.86Y-2.58
X2.9511Y-3.4939
X2.975Y-2.23
X3.008Y-3.86
X3.008Y-3.96
X3.008Y-4.064
X3.008Y-4.161
X3.008Y-4.258
X3.008Y-4.358
X3.008Y-4.4586
X3.008Y-4.56
X3.008Y-4.659
X3.008Y-4.76
X3.008Y-4.858
X3.008Y-4.96
X3.008Y-5.06
X3.008Y-5.161
X3.008Y-5.258
X3.008Y-5.36
X3.075Y-3.685
X3.182Y-3.858
X3.215Y-3.685
X3.24Y-2.58
X3.26Y-3.49
X3.282Y-3.958
X3.315Y-3.685
X3.36Y-3.49
X3.44Y-4.395
X3.4898Y-4.516
X3.557Y-4.922
X3.557Y-5.155
X3.575Y-3.44
X3.575Y-3.54
X3.625Y-3.04
X3.64Y-2.67
X3.64Y-2.77
X3.662Y-2.925
X3.69Y-4.03
X3.7037Y-2.2613
X3.7172Y-2.4372
X3.72Y-3.44
X3.72Y-4.41
X3.72Y-4.51
X3.77Y-4.21
X3.79Y-4.03
X3.809Y-4.676
X3.81Y-3.67
X3.879Y-5.58
X3.917Y-4.425
X3.971Y-4.356
X4.42Y-3.7
X4.444Y-4.42
X4.46Y-3.48
X4.474Y-3.84
X4.474Y-3.94
X4.474Y-4.04
X4.474Y-4.14
X4.474Y-4.24
X4.474Y-4.34
X4.474Y-4.5352
X4.474Y-4.64
X4.474Y-4.736
X4.474Y-4.834
X4.474Y-4.9353
X4.474Y-5.04
X4.474Y-5.136
X4.474Y-5.24
X4.475Y-5.335
X4.58Y-3.26
X4.587Y-2.3068
X4.595Y-3.415
X4.595Y-3.515
X4.62Y-3.84
X4.62Y-3.94
X4.62Y-4.04
X4.62Y-4.14
X4.62Y-4.24
X4.62Y-4.34
X4.62Y-4.44
X4.62Y-4.54
X4.62Y-4.64
X4.62Y-4.74
X4.62Y-4.84
X4.62Y-4.94
X4.62Y-5.04
X4.62Y-5.14
X4.62Y-5.24
X4.62Y-5.34
X4.745Y-3.23
X4.745Y-3.615
X4.762Y-4.338
X4.762Y-4.44
X4.762Y-4.54
X4.762Y-4.636
X4.762Y-4.74
X4.762Y-4.84
X4.762Y-4.94
X4.762Y-5.04
X4.762Y-5.14
X4.762Y-5.24
X4.762Y-5.34
X4.764Y-3.84
X4.764Y-3.938
X4.764Y-4.04
X4.764Y-4.141
X4.764Y-4.24
X4.785Y-2.28
X4.83Y-3.355
X4.83Y-3.455
X4.915Y-3.681
X4.9902Y-5.5518
X5.031Y-3.556
X5.0899Y-5.539
X5.1317Y-5.43
X5.205Y-3.68
X5.29Y-3.62
X5.475Y-4.76
T2
X2.47Y-3.83
X2.47Y-3.93
X2.47Y-4.03
X2.47Y-4.13
X2.47Y-4.23
X2.47Y-4.33
X2.47Y-4.43
X2.47Y-4.53
X2.47Y-4.63
X2.47Y-4.73
X2.47Y-4.83
X2.47Y-4.93
X2.47Y-5.03
X2.47Y-5.13
X2.47Y-5.23
X2.47Y-5.33
X2.47Y-5.43
X2.47Y-5.53
X2.47Y-5.63
X2.47Y-5.73
X2.57Y-3.83
X2.57Y-3.93
X2.57Y-4.03
X2.57Y-4.13
X2.57Y-4.23
X2.57Y-4.33
X2.57Y-4.43
X2.57Y-4.53
X2.57Y-4.63
X2.57Y-4.73
X2.57Y-4.83
X2.57Y-4.93
X2.57Y-5.03
X2.57Y-5.13
X2.57Y-5.23
X2.57Y-5.33
X2.57Y-5.43
X2.57Y-5.53
X2.57Y-5.63
X2.57Y-5.73
X5.27Y-3.83
X5.27Y-3.93
X5.27Y-4.03
X5.27Y-4.13
X5.27Y-4.23
X5.27Y-4.33
X5.27Y-4.43
X5.27Y-4.53
X5.27Y-4.63
X5.27Y-4.73
X5.27Y-4.83
X5.27Y-4.93
X5.27Y-5.03
X5.27Y-5.13
X5.27Y-5.23
X5.27Y-5.33
X5.27Y-5.43
X5.27Y-5.53
X5.27Y-5.63
X5.27Y-5.73
X5.37Y-3.83
X5.37Y-3.93
X5.37Y-4.03
X5.37Y-4.13
X5.37Y-4.23
X5.37Y-4.33
X5.37Y-4.43
X5.37Y-4.53
X5.37Y-4.63
X5.37Y-4.73
X5.37Y-4.83
X5.37Y-4.93
X5.37Y-5.03
X5.37Y-5.13
X5.37Y-5.23
X5.37Y-5.33
X5.37Y-5.43
X5.37Y-5.53
X5.37Y-5.63
X5.37Y-5.73
T3
X3.3Y-2.26
X3.3Y-2.4372
X3.5559Y-2.26
X3.5559Y-2.4372
X3.98Y-3.62
X3.98Y-3.7972
X4.2359Y-3.62
X4.2359Y-3.7972
T4
X2.395Y-6.54
X5.4Y-6.54
T0
M30
